<svg xmlns="http://www.w3.org/2000/svg" viewBox="0 0 119.006 39.787">
  <title>ENSEK</title>
  <g transform="translate(-107.125 -43.147)">
    <path d="M145.137,58.422l-9.373-14.511H107.125v26.9H135.8V56.442l9.338,14.372h7.221v-26.9h-7.221Zm-31,6.04V60.608h10.8V54.186h-10.8V50.333h14.476V64.462Z" fill="currentColor"></path>
    <path d="M176.4,59.343a5.771,5.771,0,0,0-1.318-1.854,9.135,9.135,0,0,0-1.892-1.352,14.233,14.233,0,0,0-2.257-.97q-1.2-.4-2.378-.711-1.215-.312-2.326-.537t-2.048-.468a9.622,9.622,0,0,1-1.579-.537,2.009,2.009,0,0,1-.886-.676,1.593,1.593,0,0,1-.208-.832,1.662,1.662,0,0,1,.313-1.057,1.988,1.988,0,0,1,.8-.606,3.472,3.472,0,0,1,1.059-.261c.382-.034.746-.052,1.093-.052a12.95,12.95,0,0,1,4.079.625,32.4,32.4,0,0,1,3.9,1.6q.834-1.458,1.649-2.869t1.684-2.878a17.221,17.221,0,0,0-4.964-2.112,21.82,21.82,0,0,0-5.277-.646,22.258,22.258,0,0,0-3.263.243,13.843,13.843,0,0,0-3.107.835,9.565,9.565,0,0,0-2.69,1.634,7.941,7.941,0,0,0-1.979,2.642,7.609,7.609,0,0,0-.573,1.687,8.334,8.334,0,0,0-.19,1.755,7.9,7.9,0,0,0,.885,4.016,6.782,6.782,0,0,0,2.378,2.417,9.437,9.437,0,0,0,1.579.782q.851.332,1.788.608.9.279,1.875.487t1.978.452q.764.174,1.527.314a8.475,8.475,0,0,1,1.494.416,5.11,5.11,0,0,1,.659.279,4.741,4.741,0,0,1,.659.4,2.221,2.221,0,0,1,.521.521,1.149,1.149,0,0,1,.209.678,1.869,1.869,0,0,1-.365,1.234,2.176,2.176,0,0,1-.92.644,4.44,4.44,0,0,1-1.233.26q-.677.053-1.266.052a15.476,15.476,0,0,1-4.01-.5,19.8,19.8,0,0,1-3.766-1.439,6.077,6.077,0,0,0-.868-.418q-.208.384-.729,1.25t-1.111,1.835q-.277.485-.556.951t-.485.828c-.139.242-.256.443-.348.6a1.278,1.278,0,0,0-.139.276c0,.046.093.127.278.242a1.214,1.214,0,0,0,.348.138,26.56,26.56,0,0,0,5.085,1.778,22.9,22.9,0,0,0,5.364.639,24.232,24.232,0,0,0,4.373-.4,12.344,12.344,0,0,0,3.923-1.386,7.494,7.494,0,0,0,3.888-7.018,12.245,12.245,0,0,0-.139-1.82A6.037,6.037,0,0,0,176.4,59.343Z" fill="currentColor"></path>
    <path d="M178.59,70.849h21.488V64.462H185.6V60.608h10.2V54.186H185.6V50.333h14.476V43.911H178.59Z" fill="currentColor"></path>
    <path d="M226.131,43.911h-9.1l-7.394,9.06v-9.06h-7.394V70.849h7.394V61.788l7.394,9.061h8.748l-10.657-14.2Z" fill="currentColor"></path>
    <rect width="45.233" height="6.124" transform="translate(107.125 76.81)" fill="#eb6533"></rect>
  </g>
</svg>